<svg width="20" height="20" viewBox="0 0 20 20" fill="none" xmlns="http://www.w3.org/2000/svg">
<path d="M16.0672 15.8077C16.1253 15.8657 16.1713 15.9347 16.2027 16.0105C16.2342 16.0864 16.2504 16.1677 16.2504 16.2499C16.2504 16.332 16.2342 16.4133 16.2027 16.4892C16.1713 16.565 16.1253 16.634 16.0672 16.692C16.0091 16.7501 15.9402 16.7962 15.8643 16.8276C15.7884 16.859 15.7071 16.8752 15.625 16.8752C15.5429 16.8752 15.4616 16.859 15.3857 16.8276C15.3098 16.7962 15.2409 16.7501 15.1828 16.692L8.93282 10.442C8.87471 10.384 8.82861 10.3151 8.79715 10.2392C8.7657 10.1633 8.74951 10.082 8.74951 9.99986C8.74951 9.91772 8.7657 9.8364 8.79715 9.76052C8.82861 9.68465 8.87471 9.61572 8.93282 9.55767L15.1828 3.30767C15.3001 3.1904 15.4592 3.12451 15.625 3.12451C15.7909 3.12451 15.9499 3.1904 16.0672 3.30767C16.1845 3.42495 16.2504 3.58401 16.2504 3.74986C16.2504 3.91571 16.1845 4.07477 16.0672 4.19205L10.2586 9.99986L16.0672 15.8077ZM4.0086 9.99986L9.81719 4.19205C9.93447 4.07477 10.0004 3.91571 10.0004 3.74986C10.0004 3.58401 9.93447 3.42495 9.81719 3.30767C9.69992 3.1904 9.54086 3.12451 9.375 3.12451C9.20915 3.12451 9.05009 3.1904 8.93282 3.30767L2.68282 9.55767C2.62471 9.61572 2.57861 9.68465 2.54715 9.76052C2.5157 9.8364 2.49951 9.91772 2.49951 9.99986C2.49951 10.082 2.5157 10.1633 2.54715 10.2392C2.57861 10.3151 2.62471 10.384 2.68282 10.442L8.93282 16.692C8.99088 16.7501 9.05982 16.7962 9.13569 16.8276C9.21156 16.859 9.29288 16.8752 9.375 16.8752C9.45713 16.8752 9.53844 16.859 9.61431 16.8276C9.69018 16.7962 9.75912 16.7501 9.81719 16.692C9.87526 16.634 9.92132 16.565 9.95275 16.4892C9.98418 16.4133 10.0004 16.332 10.0004 16.2499C10.0004 16.1677 9.98418 16.0864 9.95275 16.0105C9.92132 15.9347 9.87526 15.8657 9.81719 15.8077L4.0086 9.99986Z" fill="#03A84E"/>
</svg>
