<svg width="101" height="100" viewBox="0 0 101 100" fill="none" xmlns="http://www.w3.org/2000/svg">
<path d="M41.4268 15.7221L13.1304 11.5555V36.3147C13.1304 46.6666 15.6952 57.4721 20.8249 68.7592C25.9545 80.037 32.8156 89.4073 41.4268 96.8795C47.4453 98.611 52.6211 98.4166 56.9452 96.3055L57.149 96.2036C58.9175 95.3147 60.5471 94.0925 62.0286 92.5463C63.1582 91.3611 64.1675 90.0647 65.0286 88.6388C66.8249 85.7684 68.0934 82.3982 68.8434 78.5371C69.4268 75.6296 69.7137 72.4444 69.7137 68.9814V44.2314L41.4268 15.7221ZM31.8156 31.6296C32.0842 31.4259 32.3711 31.2314 32.6767 31.0555C35.0933 29.6851 38.0101 29.9814 41.4268 31.9536C44.8434 33.9258 47.76 36.9999 50.1767 41.1666C52.5933 45.3333 53.8064 49.3796 53.8064 53.3056C53.8064 54.3611 53.7137 55.3241 53.5378 56.1945C53.0656 58.5556 51.9452 60.2499 50.1767 61.2499C49.3248 61.7407 48.3989 62.0184 47.4174 62.0833C45.6304 62.2129 43.6305 61.6297 41.4268 60.3611C40.5842 59.8797 39.7786 59.324 38.9916 58.7036C36.6027 56.8055 34.5007 54.287 32.6767 51.1481C30.26 46.9814 29.047 42.9351 29.047 39.0092C29.047 35.5833 29.973 33.1296 31.8156 31.6296ZM56.1212 84.0555C54.4916 85.5647 52.6675 86.7592 50.6675 87.6573C47.9823 88.8518 44.899 89.0834 41.4268 88.3611C37.9453 85.0648 34.8711 81.2777 32.1859 76.9907C29.5007 72.7036 27.1581 68.2592 25.1581 63.6481C27.6952 63.6203 30.3342 64.0092 33.0749 64.8147C35.8156 65.6203 38.5934 66.8426 41.4268 68.4722C42.899 69.3241 44.3526 70.2684 45.797 71.3147C47.1396 72.2777 48.4637 73.3333 49.7785 74.4629C52.0378 76.4073 54.2323 78.5555 56.3434 80.9073C56.7971 81.4073 57.2507 81.9166 57.6952 82.4351C57.1859 83.0092 56.6675 83.5462 56.1212 84.0555Z" fill="#EDFEEF"/>
<path d="M56.3434 80.9073L54.1399 82.0003L41.4268 88.3611C37.9453 85.0648 34.8711 81.2777 32.1859 76.9907C29.5007 72.7036 27.1581 68.2592 25.1581 63.6481C27.6952 63.6203 30.3342 64.0092 33.0749 64.8147C35.8156 65.6203 38.5934 66.8426 41.4268 68.4722C42.899 69.3241 44.3526 70.2684 45.797 71.3147C47.1396 72.2777 48.4637 73.3333 49.7785 74.4629C52.0378 76.4073 54.2323 78.5555 56.3434 80.9073Z" fill="#EDFEEF"/>
<path d="M57.6952 82.4351C57.1859 83.0092 56.6675 83.5462 56.1212 84.0555C54.4916 85.5647 52.6675 86.7592 50.6675 87.6573C47.9823 88.8518 44.899 89.0834 41.4268 88.3611L54.1399 82.0003L56.3434 80.9073C56.7971 81.4073 57.2507 81.9166 57.6952 82.4351Z" fill="#EDFEEF"/>
<path d="M53.8064 53.3056C53.8064 54.3611 53.7137 55.3241 53.5378 56.1945C53.0656 58.5556 51.9452 60.2499 50.1767 61.2499C49.3248 61.7407 48.3989 62.0184 47.4174 62.0833C45.6304 62.2129 43.6305 61.6297 41.4268 60.3611C40.5842 59.8797 39.7786 59.324 38.9916 58.7036C36.6027 56.8055 34.5007 54.287 32.6767 51.1481C30.26 46.9814 29.047 42.9351 29.047 39.0092C29.047 35.5833 29.973 33.1296 31.8156 31.6296C32.0842 31.4259 32.3711 31.2314 32.6767 31.0555C35.0933 29.6851 38.0101 29.9814 41.4268 31.9536C44.8434 33.9258 47.76 36.9999 50.1767 41.1666C52.5933 45.3333 53.8064 49.3796 53.8064 53.3056Z" fill="#EDFEEF"/>
<path d="M59.9453 6.46311L41.4268 15.7221L13.1304 11.5555L31.6489 2.29645L59.9453 6.46311Z" fill="#EDFEEF"/>
<path d="M88.2317 34.9724L69.7137 44.2314L41.4268 15.7221L59.9453 6.46311L88.2317 34.9724Z" fill="#EDFEEF"/>
<path d="M88.2317 34.9724L88.2322 59.7221C88.2322 70.074 85.6767 77.9259 80.5471 83.287C79.1211 84.7778 77.5562 85.9721 75.8525 86.8518L75.2692 87.1388L57.149 96.2036C58.9175 95.3147 60.5471 94.0925 62.0286 92.5463C63.1582 91.3611 64.1675 90.0647 65.0286 88.6388C66.8249 85.7684 68.0934 82.3982 68.8434 78.5371C69.4268 75.6296 69.7137 72.4444 69.7137 68.9814V44.2314L88.2317 34.9724Z" fill="#EDFEEF"/>
<path d="M41.4268 15.7221L59.9453 6.46311M41.4268 15.7221L69.7137 44.2314M41.4268 15.7221L13.1304 11.5555M13.1304 11.5555V36.3147C13.1304 46.6666 15.6952 57.4721 20.8249 68.7592C25.9545 80.037 32.8156 89.4073 41.4268 96.8795C47.4453 98.611 52.6211 98.4166 56.9452 96.3055L57.149 96.2036M13.1304 11.5555L31.6489 2.29645L59.9453 6.46311M57.149 96.2036C58.9175 95.3147 60.5471 94.0925 62.0286 92.5463C63.1582 91.3611 64.1675 90.0647 65.0286 88.6388C66.8249 85.7684 68.0934 82.3982 68.8434 78.5371C69.4268 75.6296 69.7137 72.4444 69.7137 68.9814V44.2314M57.149 96.2036L75.2692 87.1388L75.8525 86.8518C77.5562 85.9721 79.1211 84.7778 80.5471 83.287C85.6767 77.9259 88.2322 70.074 88.2322 59.7221L88.2317 34.9724M69.7137 44.2314L88.2317 34.9724M41.4268 88.3611C44.899 89.0834 47.9823 88.8518 50.6675 87.6573C52.6675 86.7592 54.4916 85.5647 56.1212 84.0555C56.6675 83.5462 57.1859 83.0092 57.6952 82.4351C57.2507 81.9166 56.7971 81.4073 56.3434 80.9073M41.4268 88.3611C37.9453 85.0648 34.8711 81.2777 32.1859 76.9907C29.5007 72.7036 27.1581 68.2592 25.1581 63.6481C27.6952 63.6203 30.3342 64.0092 33.0749 64.8147C35.8156 65.6203 38.5934 66.8426 41.4268 68.4722C42.899 69.3241 44.3526 70.2684 45.797 71.3147C47.1396 72.2777 48.4637 73.3333 49.7785 74.4629C52.0378 76.4073 54.2323 78.5555 56.3434 80.9073M41.4268 88.3611L54.1399 82.0003L56.3434 80.9073M59.9453 6.46311L88.2317 34.9724M31.8156 31.6296C32.0842 31.4259 32.3711 31.2314 32.6767 31.0555C35.0933 29.6851 38.0101 29.9814 41.4268 31.9536C44.8434 33.9258 47.76 36.9999 50.1767 41.1666C52.5933 45.3333 53.8064 49.3796 53.8064 53.3056C53.8064 54.3611 53.7137 55.3241 53.5378 56.1945C53.0656 58.5556 51.9452 60.2499 50.1767 61.2499C49.3248 61.7407 48.3989 62.0184 47.4174 62.0833C45.6304 62.2129 43.6305 61.6297 41.4268 60.3611C40.5842 59.8797 39.7786 59.324 38.9916 58.7036C36.6027 56.8055 34.5007 54.287 32.6767 51.1481C30.26 46.9814 29.047 42.9351 29.047 39.0092C29.047 35.5833 29.973 33.1296 31.8156 31.6296Z" stroke="url(#paint0_linear_2659_85161)" stroke-linecap="round" stroke-linejoin="round"/>
<defs>
<linearGradient id="paint0_linear_2659_85161" x1="50.6813" y1="2.29645" x2="50.6665" y2="61.0001" gradientUnits="userSpaceOnUse">
<stop stop-color="#03A84E"/>
<stop offset="1" stop-color="#B1FFA4"/>
</linearGradient>
</defs>
</svg>
