<svg width="101" height="100" viewBox="0 0 101 100" fill="none" xmlns="http://www.w3.org/2000/svg">
<path d="M67.9003 44.9774C67.6893 43.5554 67.1571 42.0874 66.2856 40.5828C65.7076 39.592 65.0747 38.7296 64.3867 38.0048C63.6986 37.28 62.9553 36.6837 62.1479 36.225L21.148 12.5553C19.5425 11.6287 18.1572 11.491 17.0104 12.1424C15.8636 12.7938 15.2949 14.0508 15.2949 15.8948V62.9406C15.2949 64.7846 15.8636 66.7021 17.0104 68.6745C18.1572 70.6562 19.5425 72.1149 21.148 73.0415L62.1479 96.7112C63.7626 97.6378 65.1388 97.7755 66.2856 97.1241C67.4323 96.4727 68.0013 95.2158 68.0013 93.3718V46.3259C68.0013 45.8764 67.9645 45.4269 67.9003 44.9774ZM55.0106 65.9131C54.1574 66.3993 53.1205 66.2984 51.9003 65.592L46.038 62.2066V68.9315C46.038 70.326 45.6159 71.271 44.7627 71.7572C43.9095 72.2434 42.8729 72.1424 41.6527 71.436C40.4325 70.7296 39.3956 69.6378 38.5333 68.17C37.6801 66.6929 37.2582 65.2617 37.2582 63.858V57.1333L33.7444 55.115L31.3956 53.7571C30.1755 53.0507 29.1389 51.9589 28.2856 50.4911C27.4324 49.014 27.0105 47.5829 27.0105 46.1792C27.0105 44.7755 27.4324 43.8397 28.2856 43.3443C29.1389 42.858 30.1755 42.9681 31.3956 43.6745L33.6435 44.9682L37.2582 47.0599V40.3352C37.2582 38.9315 37.6801 37.9957 38.5333 37.5095C39.3956 37.0141 40.4325 37.1241 41.6527 37.8305C42.8729 38.5369 43.9095 39.6287 44.7627 41.0966C45.1113 41.7021 45.3958 42.3076 45.5885 42.8947C45.8912 43.7479 46.038 44.5828 46.038 45.4085V52.1241L46.6159 52.4544L51.9003 55.5094C52.8912 56.0782 53.7536 56.9039 54.4967 57.9773C54.6802 58.225 54.8455 58.4911 55.0106 58.7755C55.8638 60.2525 56.2949 61.6838 56.2949 63.0875C56.2949 64.4911 55.8638 65.4268 55.0106 65.9131Z" fill="#1DC8FF" fill-opacity="0.07"/>
<path d="M56.2949 63.0875C56.2949 64.482 55.8638 65.4268 55.0106 65.9131C54.1574 66.3993 53.1205 66.2984 51.9003 65.592L46.038 62.2066L54.4967 57.9773C54.6802 58.225 54.8455 58.4911 55.0106 58.7755C55.8638 60.2525 56.2949 61.6838 56.2949 63.0875Z" fill="#1DC8FF" fill-opacity="0.07"/>
<path d="M54.4967 57.9773L46.038 62.2066V68.9315C46.038 70.326 45.6159 71.271 44.7627 71.7572C43.9095 72.2434 42.8729 72.1424 41.6527 71.436C40.4325 70.7296 39.3956 69.6378 38.5333 68.17C37.6801 66.6929 37.2582 65.2617 37.2582 63.858V57.1333L46.6159 52.4544L51.9003 55.5094C52.8912 56.0782 53.7536 56.9039 54.4967 57.9773Z" fill="#1DC8FF" fill-opacity="0.07"/>
<path d="M45.5885 42.8947L37.2582 47.0599V40.3352C37.2582 38.9315 37.6801 37.9957 38.5333 37.5095C39.3956 37.0141 40.4325 37.1241 41.6527 37.8305C42.8729 38.5369 43.9095 39.6287 44.7627 41.0966C45.1113 41.7021 45.3958 42.3076 45.5885 42.8947Z" fill="#1DC8FF" fill-opacity="0.07"/>
<path d="M46.6171 52.4541L37.2593 57.133L33.7455 55.1147L31.3968 53.7569C30.1766 53.0505 29.14 51.9587 28.2868 50.4908C27.4336 49.0138 27.0116 47.5826 27.0116 46.1789C27.0116 44.7752 27.4336 43.8395 28.2868 43.344C29.14 42.8578 30.1766 42.9679 31.3968 43.6743L33.6447 44.9679L37.2593 47.0596L45.5896 42.8945C45.8924 43.7477 46.0392 44.5826 46.0392 45.4083V52.1239L46.6171 52.4541Z" fill="#1DC8FF" fill-opacity="0.07"/>
<path d="M86.3516 37.1513V84.1972C86.3516 86.0413 85.7827 87.2981 84.6359 87.9494L66.2872 97.1238C67.434 96.4724 68.0029 95.2155 68.0029 93.3715V46.3256C68.0029 45.876 67.9661 45.4266 67.9019 44.9771C67.6909 43.555 67.1588 42.0871 66.2872 40.5825C65.7093 39.5916 65.0764 38.7293 64.3883 38.0045C63.7003 37.2797 62.957 36.6834 62.1496 36.2247L21.1497 12.5549C19.5442 11.6283 18.1588 11.4907 17.012 12.1421L35.3606 2.96782C36.5074 2.31644 37.8927 2.45407 39.4983 3.38067L80.4983 27.0504C82.1129 27.977 83.4891 29.4357 84.6359 31.4082C85.7827 33.3898 86.3516 35.3072 86.3516 37.1513Z" fill="#1DC8FF" fill-opacity="0.07"/>
<path d="M55.0106 65.9131C54.1574 66.3993 53.1205 66.2984 51.9003 65.592L46.038 62.2066M55.0106 65.9131C55.8638 65.4268 56.2949 64.4911 56.2949 63.0875M55.0106 65.9131C55.8638 65.4268 56.2949 64.482 56.2949 63.0875M46.038 62.2066V68.9315C46.038 70.326 45.6159 71.271 44.7627 71.7572C43.9095 72.2434 42.8729 72.1424 41.6527 71.436C40.4325 70.7296 39.3956 69.6378 38.5333 68.17C37.6801 66.6929 37.2582 65.2617 37.2582 63.858V57.1333M46.038 62.2066L54.4967 57.9773M37.2582 57.1333L33.7444 55.115L31.3956 53.7571C30.1755 53.0507 29.1389 51.9589 28.2856 50.4911C27.4324 49.014 27.0105 47.5829 27.0105 46.1792C27.0105 44.7755 27.4324 43.8397 28.2856 43.3443C29.1389 42.858 30.1755 42.9681 31.3956 43.6745L33.6435 44.9682L37.2582 47.0599M37.2582 57.1333L46.6159 52.4544M37.2582 47.0599V40.3352C37.2582 38.9315 37.6801 37.9957 38.5333 37.5095C39.3956 37.0141 40.4325 37.1241 41.6527 37.8305C42.8729 38.5369 43.9095 39.6287 44.7627 41.0966C45.1113 41.7021 45.3958 42.3076 45.5885 42.8947M37.2582 47.0599L45.5885 42.8947M45.5885 42.8947C45.8912 43.7479 46.038 44.5828 46.038 45.4085V52.1241L46.6159 52.4544M46.6159 52.4544L51.9003 55.5094C52.8912 56.0782 53.7536 56.9039 54.4967 57.9773M54.4967 57.9773C54.6802 58.225 54.8455 58.4911 55.0106 58.7755C55.8638 60.2525 56.2949 61.6838 56.2949 63.0875M67.9003 44.9774C67.6893 43.5554 67.1571 42.0874 66.2856 40.5828C65.7076 39.592 65.0747 38.7296 64.3867 38.0048C63.6986 37.28 62.9553 36.6837 62.1479 36.225L21.148 12.5553C19.5425 11.6287 18.1572 11.491 17.0104 12.1424C15.8636 12.7938 15.2949 14.0508 15.2949 15.8948V62.9406C15.2949 64.7846 15.8636 66.7021 17.0104 68.6745C18.1572 70.6562 19.5425 72.1149 21.148 73.0415L62.1479 96.7112C63.7626 97.6378 65.1388 97.7755 66.2856 97.1241C67.4323 96.4727 68.0013 95.2158 68.0013 93.3718V46.3259C68.0013 45.8764 67.9645 45.4269 67.9003 44.9774ZM46.6171 52.4541L37.2593 57.133L33.7455 55.1147L31.3968 53.7569C30.1766 53.0505 29.14 51.9587 28.2868 50.4908C27.4336 49.0138 27.0116 47.5826 27.0116 46.1789C27.0116 44.7752 27.4336 43.8394 28.2868 43.344C29.14 42.8578 30.1766 42.9679 31.3968 43.6743L33.6447 44.9679L37.2593 47.0596L45.5896 42.8945C45.8924 43.7477 46.0392 44.5826 46.0392 45.4083V52.1239L46.6171 52.4541ZM86.3516 37.1513V84.1972C86.3516 86.0413 85.7827 87.2981 84.6359 87.9494L66.2872 97.1238C67.434 96.4724 68.0029 95.2155 68.0029 93.3715V46.3256C68.0029 45.876 67.9661 45.4266 67.9019 44.9771C67.6909 43.555 67.1588 42.0871 66.2872 40.5825C65.7093 39.5916 65.0764 38.7293 64.3883 38.0045C63.7003 37.2797 62.957 36.6834 62.1496 36.2247L21.1497 12.5549C19.5442 11.6283 18.1588 11.4907 17.012 12.1421L35.3606 2.96782C36.5074 2.31644 37.8927 2.45407 39.4983 3.38067L80.4983 27.0504C82.1129 27.977 83.4891 29.4357 84.6359 31.4082C85.7827 33.3898 86.3516 35.3072 86.3516 37.1513Z" stroke="url(#paint0_linear_2659_85150)" stroke-linecap="round" stroke-linejoin="round"/>
<defs>
<linearGradient id="paint0_linear_2659_85150" x1="50.333" y1="-22.5" x2="50.333" y2="95" gradientUnits="userSpaceOnUse">
<stop stop-color="#1DC8FF"/>
<stop offset="1" stop-color="#9747FF"/>
</linearGradient>
</defs>
</svg>
