<svg width="100" height="100" viewBox="0 0 100 100" fill="none" xmlns="http://www.w3.org/2000/svg">
<path d="M68.2381 73.5577C68.2381 74.6004 67.9304 75.6603 67.315 76.7287C66.6997 77.7886 65.9304 78.5833 65.0159 79.1133L32.7937 97.7204C31.8791 98.2417 31.1185 98.3357 30.4945 97.9768C29.8791 97.6263 29.5715 96.9255 29.5715 95.8827C29.5715 94.84 29.8791 93.7802 30.4945 92.7118C31.1185 91.6434 31.8791 90.8485 32.7937 90.3186L65.0159 71.7201C65.8364 71.2415 66.5458 71.1304 67.127 71.3612L67.315 71.4551C67.9304 71.8056 68.2381 72.5064 68.2381 73.5577Z" fill="#9747FF" fill-opacity="0.08"/>
<path d="M82.8635 11.3615L82.1626 11.0112C79.1626 9.63512 75.5985 10.1479 71.4618 12.5325C71.1284 12.7205 70.8037 12.9257 70.4789 13.1394C66.4447 15.712 62.9746 19.5068 60.0686 24.5239C59.0857 26.2162 58.2566 27.9 57.5814 29.5667C56.0943 33.2248 55.3507 36.8145 55.3507 40.3273V40.353C55.3592 45.447 56.9319 48.8914 60.0686 50.6863C63.2054 52.4726 67.0088 52.0795 71.4618 49.5068C75.9233 46.9342 79.7182 42.9428 82.8635 37.524C86.0088 32.1052 87.5729 26.8316 87.5729 21.7205C87.5729 16.6094 86.0088 13.1479 82.8635 11.3615ZM79.4361 22.9085L71.4618 36.7548C70.8208 37.8659 70.0686 38.6692 69.2054 39.1649C68.3507 39.6607 67.5985 39.729 66.949 39.3615L63.4874 37.3786C63.1626 37.1991 63.0088 36.8573 63.0088 36.3701C63.0088 35.8829 63.1626 35.353 63.4874 34.7974C63.8122 34.2419 64.1883 33.8232 64.6156 33.5411C64.7866 33.4385 64.949 33.3616 65.1028 33.3274C65.3336 33.2676 65.5472 33.2846 65.7438 33.3957L69.2054 35.3787L77.1797 21.6179C77.5045 21.0624 77.8806 20.6608 78.3079 20.4129C78.7438 20.165 79.1199 20.1308 79.4361 20.3189C79.7609 20.4984 79.9233 20.8402 79.9233 21.3273C79.9233 21.8145 79.7609 22.353 79.4361 22.9085Z" fill="#9747FF" fill-opacity="0.08"/>
<path d="M79.9233 21.3273C79.9233 21.8231 79.7609 22.353 79.4361 22.9085L71.4618 36.7548C70.8208 37.8659 70.0686 38.6692 69.2054 39.1649C68.3507 39.6607 67.5985 39.729 66.949 39.3615L63.4874 37.3786C63.1626 37.1991 63.0088 36.8573 63.0088 36.3701C63.0088 35.8829 63.1626 35.353 63.4874 34.7974C63.8122 34.2419 64.1883 33.8232 64.6156 33.5411C64.7866 33.4385 64.949 33.3616 65.1028 33.3274L69.2054 35.3787L77.1797 21.6179C77.5045 21.0624 77.8806 20.6608 78.3079 20.4129C78.7438 20.165 79.1199 20.1308 79.4361 20.3189C79.7609 20.4984 79.9233 20.8402 79.9233 21.3273Z" fill="#9747FF" fill-opacity="0.08"/>
<path d="M82.1626 11.0112C79.1626 9.63512 75.5985 10.1479 71.4618 12.5325C71.1284 12.7205 70.8037 12.9257 70.4789 13.1394C66.4447 15.712 62.9746 19.5068 60.0686 24.5239C59.0857 26.2162 58.2566 27.9 57.5814 29.5667C56.0943 33.2248 55.3507 36.8145 55.3507 40.3273V40.353C55.3592 45.447 56.9319 48.8914 60.0686 50.6863L42.9747 42.1391C39.8294 40.3443 38.2568 36.8913 38.2568 31.7802C38.2568 26.6691 39.8294 21.3956 42.9747 15.9768C46.1115 10.558 49.9149 6.55793 54.3679 3.98529C58.8294 1.41264 62.6243 1.01947 65.7696 2.81435L82.1626 11.0112Z" fill="#9747FF" fill-opacity="0.08"/>
<path d="M69.2054 35.3787L65.1028 33.3274C65.3336 33.2676 65.5472 33.2846 65.7438 33.3957L69.2054 35.3787Z" fill="#9747FF" fill-opacity="0.08"/>
<path d="M61.5544 62.6264C61.5544 63.6093 61.2552 64.6435 60.6655 65.729C60.2894 66.4128 59.845 66.9853 59.3236 67.4639C59.0159 67.7374 58.6911 67.9769 58.3321 68.182L32.7937 82.9256C31.8791 83.4555 31.1185 83.5409 30.4945 83.1904C29.8962 82.8486 29.5885 82.1733 29.5715 81.1648V81.088C29.5715 80.0452 29.8791 78.9853 30.4945 77.9169C31.1185 76.8571 31.8791 76.0623 32.7937 75.5324L51.1441 64.9427L52.5971 64.0965L58.3321 60.7888C59.1526 60.3102 59.8535 60.199 60.4432 60.4298L60.6313 60.5238C61.2467 60.8742 61.5544 61.5751 61.5544 62.6264Z" fill="#9747FF" fill-opacity="0.08"/>
<path d="M67.127 71.3612C66.5458 71.1304 65.8364 71.2415 65.0159 71.7201L32.7937 90.3186C31.8791 90.8485 31.1185 91.6434 30.4945 92.7118C29.8791 93.7802 29.5715 94.8315 29.5715 95.8827C29.5715 96.934 29.8791 97.6263 30.4945 97.9768L13.4006 89.4298C12.7852 89.0794 12.4775 88.3785 12.4775 87.3358C12.4775 86.2931 12.7852 85.233 13.4006 84.1646C14.0246 83.0962 14.7852 82.3013 15.6998 81.7714L21.2468 78.5662L28.1186 82.0021L30.4945 83.1904C31.1185 83.5409 31.8791 83.4555 32.7937 82.9256L58.3321 68.182C58.6911 67.9769 59.0159 67.7374 59.3236 67.4639L67.127 71.3612Z" fill="#9747FF" fill-opacity="0.08"/>
<path d="M49.9647 51.6858C49.3835 51.4551 48.6741 51.5663 47.8621 52.0449L45.9134 53.1645L44.4604 54.0106L32.7938 60.7371C31.8792 61.267 31.1186 62.062 30.4946 63.1304C29.8792 64.1988 29.5715 65.2499 29.5715 66.3012V66.3697C29.5886 67.3782 29.8963 68.0535 30.4946 68.3953L21.2553 63.78L13.4006 59.8483C12.7852 59.4979 12.4775 58.797 12.4775 57.7542C12.4775 56.7115 12.7852 55.6517 13.4006 54.5834C14.0246 53.515 14.7852 52.72 15.6998 52.1901L30.7681 43.4979C31.6741 42.968 32.4433 42.8824 33.0587 43.2329L49.9647 51.6858Z" fill="#9747FF" fill-opacity="0.08"/>
<path d="M51.0843 53.883C51.0843 54.4386 50.9903 55.0113 50.7851 55.601C50.6398 56.054 50.4262 56.5241 50.1526 57.0027C49.5373 58.1053 48.768 58.9087 47.862 59.4386L32.7937 68.1395C31.8791 68.6608 31.1186 68.7543 30.4946 68.3953C29.8963 68.0535 29.5886 67.3782 29.5715 66.3697V66.3012C29.5715 65.2499 29.8792 64.1988 30.4946 63.1304C31.1186 62.062 31.8792 61.267 32.7938 60.7371L44.4604 54.0106L45.9134 53.1645L47.8621 52.0449C48.6741 51.5663 49.3835 51.4551 49.9647 51.6858L50.1526 51.7805C50.7766 52.1309 51.0843 52.8318 51.0843 53.883Z" fill="#9747FF" fill-opacity="0.08"/>
<path d="M60.4432 60.4298C59.8535 60.199 59.1526 60.3102 58.3321 60.7888L52.5971 64.0965L51.1441 64.9427L32.7937 75.5324C31.8791 76.0623 31.1185 76.8571 30.4945 77.9169C29.8791 78.9853 29.5715 80.0452 29.5715 81.088V81.1648C29.5885 82.1733 29.8962 82.8486 30.4945 83.1904L28.1186 82.0021L13.4006 74.6433C12.7852 74.2929 12.4775 73.592 12.4775 72.5407C12.4775 71.4895 12.7852 70.4381 13.4006 69.3697C14.0246 68.3099 14.7852 67.5151 15.6998 66.9852L21.2553 63.78L30.4946 68.3953C31.1186 68.7543 31.8791 68.6608 32.7937 68.1395L47.862 59.4386C48.768 58.9087 49.5373 58.1053 50.1526 57.0027C50.4262 56.5241 50.6398 56.054 50.7851 55.601L60.4432 60.4298Z" fill="#9747FF" fill-opacity="0.08"/>
<path d="M30.4945 97.9768C31.1185 98.3357 31.8791 98.2417 32.7937 97.7204L65.0159 79.1133C65.9304 78.5833 66.6997 77.7886 67.315 76.7287C67.9304 75.6603 68.2381 74.6004 68.2381 73.5577C68.2381 72.5064 67.9304 71.8056 67.315 71.4551L67.127 71.3612M30.4945 97.9768C29.8791 97.6263 29.5715 96.9255 29.5715 95.8827M30.4945 97.9768C29.8791 97.6263 29.5715 96.934 29.5715 95.8827M30.4945 97.9768L13.4006 89.4298C12.7852 89.0794 12.4775 88.3785 12.4775 87.3358C12.4775 86.2931 12.7852 85.233 13.4006 84.1646C14.0246 83.0962 14.7852 82.3013 15.6998 81.7714L21.2468 78.5662L28.1186 82.0021M29.5715 95.8827C29.5715 94.84 29.8791 93.7802 30.4945 92.7118M29.5715 95.8827C29.5715 94.8315 29.8791 93.7802 30.4945 92.7118M30.4945 92.7118C31.1185 91.6434 31.8791 90.8485 32.7937 90.3186L65.0159 71.7201C65.8364 71.2415 66.5458 71.1304 67.127 71.3612M67.127 71.3612L59.3236 67.4639M82.1626 11.0112L82.8635 11.3615C86.0088 13.1479 87.5729 16.6094 87.5729 21.7205C87.5729 26.8316 86.0088 32.1052 82.8635 37.524C79.7182 42.9428 75.9233 46.9342 71.4618 49.5068C67.0088 52.0795 63.2054 52.4726 60.0686 50.6863M82.1626 11.0112C79.1626 9.63512 75.5985 10.1479 71.4618 12.5325C71.1284 12.7205 70.8037 12.9257 70.4789 13.1394C66.4447 15.712 62.9746 19.5068 60.0686 24.5239C59.0857 26.2162 58.2566 27.9 57.5814 29.5667C56.0943 33.2248 55.3507 36.8145 55.3507 40.3273V40.353C55.3592 45.447 56.9319 48.8914 60.0686 50.6863M82.1626 11.0112L65.7696 2.81435C62.6243 1.01947 58.8294 1.41264 54.3679 3.98529C49.9149 6.55793 46.1115 10.558 42.9747 15.9768C39.8294 21.3956 38.2568 26.6691 38.2568 31.7802C38.2568 36.8913 39.8294 40.3443 42.9747 42.1391L60.0686 50.6863M79.4361 22.9085L71.4618 36.7548C70.8208 37.8659 70.0686 38.6692 69.2054 39.1649C68.3507 39.6607 67.5985 39.7291 66.949 39.3615L63.4874 37.3786C63.1626 37.1991 63.0088 36.8573 63.0088 36.3701C63.0088 35.8829 63.1626 35.353 63.4874 34.7974C63.8122 34.2419 64.1883 33.8232 64.6156 33.5411C64.7866 33.4385 64.949 33.3616 65.1028 33.3274M79.4361 22.9085C79.7609 22.353 79.9233 21.8145 79.9233 21.3273M79.4361 22.9085C79.7609 22.353 79.9233 21.8231 79.9233 21.3273M65.1028 33.3274C65.3336 33.2676 65.5472 33.2846 65.7438 33.3957L69.2054 35.3787M65.1028 33.3274L69.2054 35.3787M69.2054 35.3787L77.1797 21.6179C77.5045 21.0624 77.8806 20.6608 78.3079 20.4129C78.7438 20.165 79.1199 20.1308 79.4361 20.3189C79.7609 20.4984 79.9233 20.8402 79.9233 21.3273M59.3236 67.4639C59.845 66.9853 60.2894 66.4127 60.6655 65.729C61.2552 64.6435 61.5544 63.6093 61.5544 62.6264C61.5544 61.5751 61.2467 60.8742 60.6313 60.5238L60.4432 60.4298M59.3236 67.4639C59.0159 67.7374 58.6911 67.9769 58.3321 68.182L32.7937 82.9256C31.8791 83.4555 31.1185 83.5409 30.4945 83.1904M30.4945 83.1904C29.8962 82.8486 29.5885 82.1733 29.5715 81.1648V81.088C29.5715 80.0452 29.8791 78.9853 30.4945 77.9169C31.1185 76.8571 31.8791 76.0623 32.7937 75.5324L51.1441 64.9427L52.5971 64.0965L58.3321 60.7888C59.1527 60.3102 59.8535 60.199 60.4432 60.4298M30.4945 83.1904L28.1186 82.0021M60.4432 60.4298L50.7851 55.601M28.1186 82.0021L13.4006 74.6433C12.7852 74.2929 12.4775 73.592 12.4775 72.5407C12.4775 71.4895 12.7852 70.4381 13.4006 69.3697C14.0246 68.3099 14.7852 67.5151 15.6998 66.9852L21.2553 63.78M49.9647 51.6858C49.3835 51.4551 48.6741 51.5663 47.8621 52.0449L45.9134 53.1645L44.4604 54.0106L32.7938 60.7371C31.8792 61.267 31.1186 62.062 30.4946 63.1304C29.8792 64.1988 29.5715 65.2499 29.5715 66.3012V66.3697C29.5886 67.3782 29.8963 68.0535 30.4946 68.3953M49.9647 51.6858L33.0587 43.2329C32.4433 42.8824 31.6741 42.968 30.7681 43.4979L15.6998 52.1901C14.7852 52.72 14.0246 53.515 13.4006 54.5834C12.7852 55.6517 12.4775 56.7115 12.4775 57.7542C12.4775 58.797 12.7852 59.4979 13.4006 59.8483L21.2553 63.78M49.9647 51.6858L50.1526 51.7805C50.7766 52.1309 51.0843 52.8318 51.0843 53.883C51.0843 54.4386 50.9903 55.0113 50.7851 55.601M30.4946 68.3953C31.1186 68.7543 31.8791 68.6608 32.7937 68.1395L47.862 59.4386C48.768 58.9087 49.5373 58.1053 50.1526 57.0027C50.4262 56.5241 50.6398 56.054 50.7851 55.601M30.4946 68.3953L21.2553 63.78" stroke="url(#paint0_linear_2659_85134)" stroke-linecap="round" stroke-linejoin="round"/>
<defs>
<linearGradient id="paint0_linear_2659_85134" x1="50" y1="10.5" x2="50.0252" y2="98.1917" gradientUnits="userSpaceOnUse">
<stop stop-color="#9747FF"/>
<stop offset="1" stop-color="#E51DFF" stop-opacity="0.18"/>
</linearGradient>
</defs>
</svg>
