<svg width="100" height="100" viewBox="0 0 100 100" fill="none" xmlns="http://www.w3.org/2000/svg">
<path d="M52.3658 63.1214C52.3658 64.3096 52.0193 65.4976 51.3163 66.7055C51.0391 67.1907 50.7322 67.6165 50.3955 68.0026C49.9005 68.5769 49.346 69.0421 48.7223 69.3986C48.0985 69.7649 47.5441 69.9432 47.0392 69.9432C46.7125 69.9432 46.4153 69.8541 46.1282 69.6957C45.4351 69.2997 45.0787 68.5076 45.0787 67.3294C45.0787 66.1511 45.4351 64.953 46.1282 63.7451C46.8312 62.5372 47.6926 61.6363 48.7223 61.0422C49.653 60.5076 50.4451 60.3788 51.0986 60.6362L51.3163 60.7451C52.0193 61.1412 52.3658 61.9333 52.3658 63.1214Z" fill="#081F24" fill-opacity="0.08"/>
<path d="M74.7326 27.4975C74.5247 27.3985 74.3068 27.3094 74.089 27.2302C73.7028 27.0816 73.3068 26.9529 72.9108 26.8539C72.8216 26.8242 72.7227 26.8044 72.6336 26.7747C70.3564 26.2302 67.891 26.349 65.2474 27.1509C63.5246 27.6559 61.7127 28.4579 59.8316 29.547C57.0494 31.1608 54.4653 33.1509 52.0792 35.5173C48.9505 38.6262 46.1583 42.3787 43.7127 46.7945C42.1583 49.5965 40.9109 52.3589 39.9802 55.0816C38.7524 58.646 38.0495 62.141 37.8812 65.5668C37.8119 66.7747 37.8218 67.9826 37.8812 69.1806L34.188 67.3391C34.2375 66.1905 34.3266 65.0321 34.485 63.8737C34.9009 60.4876 35.7524 57.0618 37.0099 53.5965C38.1782 50.4282 39.693 47.2401 41.5643 44.0123C43.7722 40.2004 46.1979 36.8341 48.8514 33.9034C49.4652 33.2104 50.099 32.547 50.7524 31.9133C53.495 29.1806 56.4653 26.9034 59.6435 25.0618C60.0297 24.8341 60.4157 24.6262 60.8019 24.4282C62.0989 23.7252 63.3563 23.1509 64.5741 22.7054C64.683 22.6658 64.7919 22.6262 64.9009 22.5866L74.7226 27.4975H74.7326Z" fill="#081F24" fill-opacity="0.08"/>
<path d="M74.2285 50.4975C74.2285 51.6857 73.8721 52.8837 73.179 54.0817C73.0008 54.3787 72.8227 54.656 72.6346 54.9233C72.0405 55.7154 71.3572 56.3391 70.585 56.7847C69.5453 57.3787 68.684 57.4777 67.9909 57.0817C67.2879 56.6857 66.9415 55.8936 66.9415 54.7055C66.9415 53.5173 67.2879 52.3292 67.9909 51.1213C68.684 49.9233 69.5453 49.0223 70.585 48.4282C71.5156 47.8936 72.2978 47.7649 72.9612 48.0223L73.179 48.1312C73.3968 48.2599 73.585 48.4282 73.7335 48.6362C74.0602 49.0718 74.2285 49.6956 74.2285 50.4975Z" fill="#081F24" fill-opacity="0.08"/>
<path d="M85.1489 69.2699L59.6539 83.9927C58.6242 84.5867 57.7529 85.4877 57.0598 86.6956C56.3569 87.8937 56.0102 89.0917 56.0102 90.2798C56.0102 91.4679 56.3569 92.2501 57.0598 92.6461L37.2579 82.7452C36.5549 82.3491 36.2083 81.557 36.2083 80.3788C36.2083 79.2006 36.5549 77.9927 37.2579 76.7947C37.9509 75.5867 38.8222 74.6858 39.8519 74.0917L47.0392 69.9432C47.5441 69.9432 48.0985 69.7649 48.7223 69.3986C49.346 69.0421 49.9005 68.5769 50.3955 68.0026L65.347 59.3689L85.1489 69.2699Z" fill="#081F24" fill-opacity="0.08"/>
<path d="M96.0795 41.4382V51.052C96.0795 52.4481 95.7627 53.953 95.1191 55.5768C94.4854 57.1906 93.5945 58.656 92.436 59.9431V65.0619C92.436 67.3689 91.7232 69.7451 90.2974 72.2104C88.8717 74.6659 87.1588 76.4778 85.1489 77.6362L59.6539 92.349C58.6242 92.953 57.7529 93.0521 57.0598 92.6461C56.3569 92.2501 56.0102 91.458 56.0102 90.2798C56.0102 89.1016 56.3569 87.8937 57.0598 86.6956C57.7529 85.4877 58.6242 84.5867 59.6539 83.9927L85.1489 69.2699L85.1489 39.5966C85.1489 31.4481 82.6737 25.9629 77.7331 23.1411C76.0598 22.1906 74.2677 21.6362 72.3568 21.4778C70.0499 21.2698 67.5646 21.6362 64.9112 22.5867C64.8023 22.6263 64.6935 22.6659 64.5845 22.7055C63.3667 23.151 62.1092 23.7253 60.8122 24.4283C60.426 24.6263 60.04 24.8342 59.6539 25.0619C56.4756 26.9035 53.5052 29.1807 50.7627 31.9134C50.1092 32.5471 49.4756 33.2104 48.8618 33.9035C46.2083 36.8342 43.7826 40.2005 41.5746 44.0124C39.7034 47.2401 38.1884 50.4283 37.0201 53.5966C35.7627 57.0619 34.9113 60.4878 34.4954 63.8739C34.337 65.0323 34.2478 66.1907 34.1983 67.3392C34.1686 67.9135 34.1588 68.4778 34.1588 69.0421V90.359C34.1588 91.5373 33.8023 92.7352 33.1092 93.9332C32.4062 95.1411 31.5448 96.0421 30.5151 96.6362C28.5052 97.7946 26.7925 97.9629 25.3667 97.151C23.941 96.3391 23.2281 94.7847 23.2281 92.4877V84.1213C23.2281 82.6659 23.5448 81.1015 24.1884 79.4481C24.8221 77.7847 25.7132 76.2401 26.8716 74.8144L27.1488 69.1114C27.3072 67.4679 27.5448 65.8144 27.8617 64.1609C28.0597 63.0817 28.2974 62.0025 28.5647 60.9134C28.6836 60.4382 28.8024 59.963 28.9311 59.4878C29.4459 57.6264 30.0399 55.755 30.7429 53.8738C31.0894 52.9332 31.4557 52.0025 31.8419 51.0817C31.8419 51.0619 31.8518 51.0421 31.8716 51.0223C33.5646 46.9035 35.5844 42.953 37.931 39.1609C39.6637 36.3788 41.535 33.7352 43.5746 31.25C43.5944 31.2203 43.6143 31.1906 43.644 31.1609C44.9806 29.5174 46.3865 27.9431 47.8618 26.4283C50.7727 23.4481 53.8023 20.9035 56.9508 18.8045C57.0102 18.755 57.0697 18.7154 57.1291 18.6857C57.9608 18.1213 58.8024 17.6065 59.6539 17.1114C60.2479 16.7748 60.832 16.4481 61.4161 16.1411C64.426 14.5867 67.3171 13.557 70.0894 13.0421C70.525 12.9629 70.9608 12.8936 71.3964 12.8441C75.1093 12.3788 78.4161 12.7847 81.327 14.0619C84.2379 15.3391 86.6439 17.458 88.525 20.4085C90.4062 23.3589 91.6142 27.052 92.1687 31.4679L92.436 36.7451C93.5945 36.7055 94.4854 37.1312 95.1191 38.0223C95.7627 38.9035 96.0795 40.0421 96.0795 41.4382Z" fill="#081F24" fill-opacity="0.08"/>
<path d="M81.327 14.0619C78.4161 12.7847 75.1093 12.3788 71.3964 12.8441C70.9608 12.8936 70.525 12.9629 70.0894 13.0421C67.3171 13.557 64.426 14.5867 61.4161 16.1411C60.832 16.4481 60.2479 16.7748 59.6539 17.1114C58.8024 17.6065 57.9608 18.1213 57.1291 18.6857C57.0697 18.7154 57.0102 18.755 56.9508 18.8045C53.8023 20.9035 50.7727 23.4481 47.8618 26.4283C46.3865 27.9431 44.9806 29.5174 43.644 31.1609C43.6143 31.1906 43.5944 31.2203 43.5746 31.25C41.535 33.7352 39.6637 36.3788 37.931 39.1609C35.5844 42.953 33.5646 46.9035 31.8716 51.0223C31.8518 51.0421 31.8419 51.0619 31.8419 51.0817C31.4557 52.0025 31.0894 52.9332 30.7429 53.8738C30.0399 55.755 29.4459 57.6264 28.9311 59.4878C28.8024 59.963 28.6836 60.4382 28.5647 60.9134C28.2974 62.0025 28.0597 63.0817 27.8617 64.1609C27.5448 65.8144 27.3072 67.4679 27.1488 69.1114L26.8716 74.8144L7.07007 64.9134L7.34733 59.2105C7.83247 54.2006 9.0305 49.1114 10.9414 43.9728C12.8523 38.8243 15.2483 33.9233 18.1295 29.26C21.0206 24.6065 24.3276 20.359 28.0603 16.5273C31.7929 12.7055 35.7236 9.59664 39.8524 7.21051C43.9811 4.83427 47.892 3.40852 51.5949 2.94318C55.3078 2.47783 58.6146 2.88377 61.5255 4.161L81.327 14.0619Z" fill="#081F24" fill-opacity="0.08"/>
<path d="M85.1489 39.5966L85.1489 69.2699L65.347 59.3689L65.3467 55.7649L67.9909 57.0817C68.684 57.4777 69.5453 57.3787 70.585 56.7847C71.3572 56.3391 72.0405 55.7154 72.6346 54.9233C72.8227 54.656 73.0008 54.3787 73.179 54.0817C73.8721 52.8837 74.2285 51.6857 74.2285 50.4975C74.2285 49.6956 74.0602 49.0718 73.7335 48.6362C73.585 48.4282 73.3968 48.2599 73.179 48.1312L72.9612 48.0223L65.3467 44.2203V41.5668C65.6437 41.6262 65.9506 41.6758 66.2575 41.7253C69.3961 42.1708 72.7327 41.755 76.2773 40.4777C77.9704 39.8639 79.713 39.052 81.5051 38.0421C80.7427 32.953 78.6536 29.5173 75.2477 27.755L74.7427 27.5074H74.7328L73.6239 26.9431L64.9112 22.5867C67.5646 21.6362 70.0499 21.2698 72.3568 21.4778C74.2677 21.6362 76.0598 22.1906 77.7331 23.1411C82.6737 25.9629 85.1489 31.4481 85.1489 39.5966Z" fill="#081F24" fill-opacity="0.08"/>
<path d="M25.3667 97.151L5.56492 87.2501C4.13918 86.4382 3.42627 84.8837 3.42627 82.5867V74.2204C3.42627 72.7649 3.74307 71.2006 4.38664 69.5471C5.0203 67.8837 5.91165 66.3392 7.07007 64.9134L26.8716 74.8144C25.7132 76.2401 24.8221 77.7847 24.1884 79.4481C23.5448 81.1015 23.2281 82.6659 23.2281 84.1213V92.4877C23.2281 94.7847 23.941 96.3391 25.3667 97.151Z" fill="#081F24" fill-opacity="0.08"/>
<path d="M81.5051 38.0421C79.713 39.052 77.9704 39.8639 76.2773 40.4777C72.7327 41.755 69.3961 42.1708 66.2575 41.7253C65.9506 41.6758 65.6437 41.6262 65.3467 41.5668C64.0398 41.3094 62.8224 40.8932 61.7036 40.3288L61.4858 40.2199C59.0897 38.9625 57.1194 36.9922 55.5551 34.3189C55.4165 35.21 55.2481 36.111 55.06 37.0021C54.9313 37.6258 54.7927 38.2397 54.6343 38.8635C54.5551 39.21 54.466 39.5565 54.367 39.9031C53.9115 41.6555 53.3571 43.408 52.7234 45.1605C52.2878 46.3486 51.8125 47.5466 51.2977 48.7348C50.7234 50.0813 50.0896 51.4179 49.4065 52.7645C48.4461 54.6556 47.4263 56.4773 46.3174 58.2397C44.4659 61.2496 42.3966 64.0615 40.1193 66.6951C39.4065 67.5466 38.6639 68.3684 37.8916 69.1803C37.8223 67.9823 37.8124 66.7744 37.8916 65.5664C38.0599 62.1407 38.7629 58.6456 39.9906 55.0813C40.9213 52.3585 42.1689 49.5961 43.7234 46.7942C46.1689 42.3783 48.961 38.6258 52.0897 35.5169C54.4759 33.1506 57.06 31.1605 59.8422 29.5466C61.7234 28.4575 63.5353 27.6555 65.258 27.1506C67.9016 26.3486 70.367 26.2298 72.6442 26.7744C72.7333 26.8041 72.8322 26.8239 72.9213 26.8536C73.3174 26.9526 73.7135 27.0813 74.0996 27.2298C74.3174 27.309 74.5353 27.3981 74.7432 27.4971H74.7531L75.258 27.7546C78.664 29.5169 80.7531 32.9526 81.5155 38.0417L81.5051 38.0421Z" fill="#081F24" fill-opacity="0.08"/>
<path d="M51.0986 60.6362C50.4451 60.3788 49.653 60.5076 48.7223 61.0422C47.6926 61.6363 46.8312 62.5372 46.1282 63.7451C45.4351 64.953 45.0787 66.1413 45.0787 67.3294C45.0787 68.5175 45.4351 69.2997 46.1282 69.6957L40.1193 66.6951C42.3966 64.0615 44.4659 61.2496 46.3174 58.2397L51.0986 60.6362Z" fill="#081F24" fill-opacity="0.08"/>
<path d="M72.9612 48.0223C72.2978 47.7649 71.5156 47.8936 70.585 48.4282C69.5453 49.0223 68.684 49.9233 67.9909 51.1213C67.2879 52.3292 66.9415 53.5272 66.9415 54.7055C66.9415 55.8837 67.2879 56.6857 67.9909 57.0817L65.3477 55.7646L51.2977 48.7348C51.8125 47.5466 52.2878 46.3486 52.7234 45.1605C53.3571 43.408 53.9115 41.6555 54.367 39.9031C54.466 39.5565 54.5551 39.21 54.6343 38.8635L72.9612 48.0223Z" fill="#081F24" fill-opacity="0.08"/>
<path d="M61.4858 40.2199L55.06 37.0021C55.2481 36.111 55.4165 35.21 55.5551 34.3189C57.1194 36.9922 59.0897 38.9625 61.4858 40.2199Z" fill="#081F24" fill-opacity="0.08"/>
<path d="M50.3955 68.0026C50.7322 67.6165 51.0391 67.1907 51.3163 66.7055C52.0193 65.4976 52.3658 64.3096 52.3658 63.1214C52.3658 61.9333 52.0193 61.1412 51.3163 60.7451L51.0986 60.6362M50.3955 68.0026C49.9005 68.5769 49.346 69.0421 48.7223 69.3986C48.0985 69.7649 47.5441 69.9432 47.0392 69.9432M50.3955 68.0026L65.347 59.3689M47.0392 69.9432C46.7125 69.9432 46.4153 69.8541 46.1282 69.6957M47.0392 69.9432L39.8519 74.0917C38.8222 74.6857 37.9509 75.5867 37.2579 76.7947C36.5549 77.9927 36.2083 79.2006 36.2083 80.3788C36.2083 81.557 36.5549 82.3491 37.2579 82.7452L57.0598 92.6461M46.1282 69.6957C45.4351 69.2997 45.0787 68.5076 45.0787 67.3294M46.1282 69.6957C45.4351 69.2997 45.0787 68.5175 45.0787 67.3294M46.1282 69.6957L40.1193 66.6951M45.0787 67.3294C45.0787 66.1512 45.4351 64.953 46.1282 63.7451M45.0787 67.3294C45.0787 66.1412 45.4351 64.953 46.1282 63.7451M46.1282 63.7451C46.8312 62.5372 47.6926 61.6363 48.7223 61.0422C49.6529 60.5076 50.4451 60.3788 51.0986 60.6362M51.0986 60.6362L46.3174 58.2397M67.9909 57.0817C68.684 57.4777 69.5453 57.3787 70.585 56.7847C71.3572 56.3391 72.0405 55.7154 72.6346 54.9233C72.8227 54.656 73.0008 54.3787 73.179 54.0817C73.8721 52.8837 74.2285 51.6857 74.2285 50.4975C74.2285 49.6956 74.0602 49.0718 73.7335 48.6362C73.585 48.4282 73.3968 48.2599 73.179 48.1312L72.9612 48.0223M67.9909 57.0817C67.2879 56.6857 66.9415 55.8936 66.9415 54.7055M67.9909 57.0817L65.3467 55.7649L65.347 59.3689M67.9909 57.0817C67.2879 56.6857 66.9415 55.8837 66.9415 54.7055M67.9909 57.0817L65.3477 55.7646L51.2977 48.7348M66.9415 54.7055C66.9415 53.5173 67.2879 52.3292 67.9909 51.1213M66.9415 54.7055C66.9415 53.5272 67.2879 52.3292 67.9909 51.1213M67.9909 51.1213C68.684 49.9233 69.5453 49.0223 70.585 48.4282C71.5156 47.8936 72.2978 47.7649 72.9612 48.0223M72.9612 48.0223L65.3467 44.2203V41.5668M72.9612 48.0223L54.6343 38.8635M85.1489 69.2699L59.6539 83.9927C58.6242 84.5867 57.7529 85.4877 57.0598 86.6956M85.1489 69.2699L65.347 59.3689M85.1489 69.2699L85.1489 39.5966C85.1489 31.4481 82.6737 25.9629 77.7331 23.1411C76.0598 22.1906 74.2677 21.6362 72.3568 21.4778C70.0499 21.2698 67.5646 21.6362 64.9112 22.5867M57.0598 86.6956C56.3569 87.8937 56.0102 89.0917 56.0102 90.2798M57.0598 86.6956C56.3569 87.8937 56.0102 89.1016 56.0102 90.2798M56.0102 90.2798C56.0102 91.4679 56.3569 92.2501 57.0598 92.6461M56.0102 90.2798C56.0102 91.458 56.3569 92.2501 57.0598 92.6461M57.0598 92.6461C57.7529 93.0521 58.6242 92.953 59.6539 92.349L85.1489 77.6362C87.1588 76.4778 88.8717 74.6659 90.2974 72.2104C91.7232 69.7451 92.436 67.3689 92.436 65.0619V59.9431C93.5945 58.656 94.4854 57.1906 95.1191 55.5768C95.7627 53.953 96.0795 52.4481 96.0795 51.052V41.4382C96.0795 40.0421 95.7627 38.9035 95.1191 38.0223C94.4854 37.1312 93.5945 36.7055 92.436 36.7451L92.1687 31.4679C91.6142 27.052 90.4062 23.3589 88.525 20.4085C86.6439 17.458 84.2379 15.3391 81.327 14.0619M64.9112 22.5867C64.8023 22.6263 64.6935 22.6659 64.5845 22.7055C63.3667 23.151 62.1092 23.7253 60.8122 24.4283C60.426 24.6263 60.04 24.8342 59.6539 25.0619C56.4756 26.9035 53.5052 29.1807 50.7627 31.9134C50.1092 32.5471 49.4756 33.2104 48.8618 33.9035C46.2083 36.8342 43.7826 40.2005 41.5746 44.0124C39.7034 47.2401 38.1884 50.4283 37.0201 53.5966C35.7627 57.0619 34.9113 60.4878 34.4954 63.8739C34.337 65.0323 34.2478 66.1907 34.1983 67.3392C34.1686 67.9135 34.1588 68.4778 34.1588 69.0421V90.359C34.1588 91.5373 33.8023 92.7352 33.1092 93.9332C32.4062 95.1411 31.5448 96.0421 30.5151 96.6362C28.5052 97.7946 26.7925 97.9629 25.3667 97.151M64.9112 22.5867L73.6239 26.9431L74.7328 27.5074H74.7427L75.2477 27.755C78.6536 29.5173 80.7427 32.953 81.5051 38.0421M25.3667 97.151C23.941 96.3391 23.2281 94.7847 23.2281 92.4877V84.1213C23.2281 82.6659 23.5448 81.1015 24.1884 79.4481C24.8221 77.7847 25.7132 76.2401 26.8716 74.8144M25.3667 97.151L5.56492 87.2501C4.13918 86.4382 3.42627 84.8837 3.42627 82.5867V74.2204C3.42627 72.7649 3.74307 71.2006 4.38664 69.5471C5.0203 67.8837 5.91165 66.3392 7.07007 64.9134M26.8716 74.8144L27.1488 69.1114C27.3072 67.4679 27.5448 65.8144 27.8617 64.1609C28.0597 63.0817 28.2974 62.0025 28.5647 60.9134C28.6836 60.4382 28.8024 59.963 28.9311 59.4878C29.4459 57.6264 30.0399 55.755 30.7429 53.8738C31.0894 52.9332 31.4557 52.0025 31.8419 51.0817C31.8419 51.0619 31.8518 51.0421 31.8716 51.0223C33.5646 46.9035 35.5844 42.953 37.931 39.1609C39.6637 36.3788 41.535 33.7352 43.5746 31.25C43.5944 31.2203 43.6143 31.1906 43.644 31.1609C44.9806 29.5174 46.3865 27.9431 47.8618 26.4283C50.7727 23.4481 53.8023 20.9035 56.9508 18.8045C57.0102 18.755 57.0697 18.7154 57.1291 18.6857C57.9608 18.1213 58.8024 17.6065 59.6539 17.1114C60.2479 16.7748 60.832 16.4481 61.4161 16.1411C64.426 14.5867 67.3171 13.557 70.0894 13.0421C70.525 12.9629 70.9608 12.8936 71.3964 12.8441C75.1093 12.3788 78.4161 12.7847 81.327 14.0619M26.8716 74.8144L7.07007 64.9134M81.327 14.0619L61.5255 4.161C58.6146 2.88377 55.3078 2.47783 51.5949 2.94318C47.892 3.40852 43.9811 4.83427 39.8524 7.21051C35.7236 9.59664 31.7929 12.7055 28.0603 16.5273C24.3276 20.359 21.0206 24.6065 18.1295 29.26C15.2483 33.9233 12.8523 38.8243 10.9414 43.9728C9.0305 49.1114 7.83247 54.2006 7.34733 59.2105L7.07007 64.9134M65.3467 41.5668C65.6437 41.6262 65.9506 41.6758 66.2575 41.7253C69.3961 42.1708 72.7327 41.755 76.2773 40.4777C77.9704 39.8639 79.713 39.052 81.5051 38.0421M65.3467 41.5668C64.0398 41.3094 62.8224 40.8932 61.7036 40.3288L61.4858 40.2199M81.5051 38.0421L81.5155 38.0417C80.7531 32.9526 78.664 29.5169 75.258 27.7546L74.7531 27.4971H74.7432C74.5353 27.3981 74.3174 27.309 74.0996 27.2298C73.7135 27.0813 73.3174 26.9526 72.9213 26.8536C72.8322 26.8239 72.7333 26.8041 72.6442 26.7744C70.367 26.2298 67.9016 26.3486 65.258 27.1506C63.5353 27.6555 61.7234 28.4575 59.8422 29.5466C57.06 31.1605 54.4759 33.1506 52.0897 35.5169C48.961 38.6258 46.1689 42.3783 43.7234 46.7942C42.1689 49.5961 40.9213 52.3585 39.9906 55.0813C38.7629 58.6456 38.0599 62.1407 37.8916 65.5664C37.8124 66.7744 37.8223 67.9823 37.8916 69.1803C38.6639 68.3684 39.4065 67.5466 40.1193 66.6951M61.4858 40.2199C59.0897 38.9625 57.1194 36.9922 55.5551 34.3189C55.4165 35.21 55.2481 36.111 55.06 37.0021M61.4858 40.2199L55.06 37.0021M55.06 37.0021C54.9313 37.6258 54.7927 38.2397 54.6343 38.8635M54.6343 38.8635C54.5551 39.21 54.466 39.5565 54.367 39.9031C53.9115 41.6555 53.3571 43.408 52.7234 45.1605C52.2877 46.3486 51.8125 47.5466 51.2977 48.7348M51.2977 48.7348C50.7234 50.0813 50.0896 51.4179 49.4065 52.7645C48.4461 54.6556 47.4263 56.4773 46.3174 58.2397M46.3174 58.2397C44.4659 61.2496 42.3966 64.0615 40.1193 66.6951M74.7326 27.4975C74.5247 27.3985 74.3068 27.3094 74.089 27.2302C73.7028 27.0816 73.3068 26.9529 72.9108 26.8539C72.8217 26.8242 72.7227 26.8044 72.6336 26.7747C70.3564 26.2302 67.891 26.349 65.2474 27.1509C63.5246 27.6559 61.7127 28.4579 59.8316 29.547C57.0494 31.1608 54.4653 33.1509 52.0792 35.5173C48.9505 38.6262 46.1583 42.3787 43.7127 46.7945C42.1583 49.5965 40.9109 52.3589 39.9802 55.0816C38.7524 58.646 38.0495 62.141 37.8812 65.5668C37.8118 66.7747 37.8218 67.9826 37.8812 69.1806L34.188 67.3391C34.2375 66.1905 34.3266 65.0321 34.485 63.8737C34.9009 60.4876 35.7524 57.0618 37.0099 53.5965C38.1782 50.4282 39.693 47.2401 41.5643 44.0123C43.7722 40.2004 46.1979 36.8341 48.8514 33.9034C49.4652 33.2104 50.099 32.547 50.7524 31.9133C53.495 29.1806 56.4653 26.9034 59.6435 25.0618C60.0297 24.8341 60.4157 24.6262 60.8019 24.4282C62.0989 23.7252 63.3563 23.1509 64.5741 22.7054C64.683 22.6658 64.7919 22.6262 64.9009 22.5866L74.7226 27.4975H74.7326Z" stroke="#081F24" stroke-linecap="round" stroke-linejoin="round"/>
</svg>
