<svg width="116" height="22" viewBox="0 0 116 22" fill="none" xmlns="http://www.w3.org/2000/svg">
<path d="M0.999908 20.7463V1.25372H15.8385V4.55123H4.93564V9.38643H15.8385V12.7054L4.93564 12.6706V17.462H15.8385V20.7463H0.999908Z" fill="white"/>
<path d="M17.9912 20.7463V1.25372H21.8206L29.7984 14.2709V1.25372H33.455V20.7463H29.5059L21.6477 8.03489V20.7463H17.9912Z" fill="white"/>
<path d="M42.5881 20.7463L35.6208 1.25372H39.889L44.8219 15.6803L49.5953 1.25372H53.7704L46.7898 20.7463H42.5881Z" fill="white"/>
<path d="M55.9362 11.1157C55.9362 9.1956 56.2234 7.58408 56.7977 6.28115C57.2263 5.3211 57.8092 4.45962 58.5464 3.69672C59.2921 2.93382 60.1065 2.36807 60.9894 1.99948C62.1637 1.50231 63.5181 1.25372 65.0525 1.25372C67.8298 1.25372 70.0499 2.1152 71.7128 3.83816C73.3844 5.56111 74.2201 7.95696 74.2201 11.0257C74.2201 14.0687 73.3929 16.4517 71.7386 18.1747C70.0842 19.8891 67.8726 20.7463 65.1039 20.7463C62.3009 20.7463 60.0722 19.8933 58.4178 18.1875C56.7634 16.4732 55.9362 14.1159 55.9362 11.1157ZM59.8579 10.9871C59.8579 13.1215 60.3508 14.7416 61.3365 15.8474C62.3223 16.9446 63.5738 17.4932 65.091 17.4932C66.6083 17.4932 67.8512 16.9489 68.8198 15.8603C69.797 14.7631 70.2856 13.1215 70.2856 10.9357C70.2856 8.77558 69.8099 7.16406 68.8584 6.10114C67.9155 5.03822 66.6597 4.50676 65.091 4.50676C63.5224 4.50676 62.258 5.0468 61.298 6.12686C60.3379 7.19835 59.8579 8.81844 59.8579 10.9871Z" fill="white"/>
<path d="M83.5261 20.7463V12.5424L76.386 1.25372H80.9998L85.5871 8.96564L90.0813 1.25372H94.6153L87.4486 12.569V20.7463H83.5261Z" fill="white"/>
<path d="M0.999908 20.7463V1.25372H15.8385V4.55123H4.93564V9.38643H15.8385V12.7054L4.93564 12.6706V17.462H15.8385V20.7463H0.999908Z" stroke="white" stroke-width="1.08292" stroke-linejoin="round"/>
<path d="M17.9912 20.7463V1.25372H21.8206L29.7984 14.2709V1.25372H33.455V20.7463H29.5059L21.6477 8.03489V20.7463H17.9912Z" stroke="white" stroke-width="1.08292" stroke-linejoin="round"/>
<path d="M42.5881 20.7463L35.6208 1.25372H39.889L44.8219 15.6803L49.5953 1.25372H53.7704L46.7898 20.7463H42.5881Z" stroke="white" stroke-width="1.08292" stroke-linejoin="round"/>
<path d="M55.9362 11.1157C55.9362 9.1956 56.2234 7.58408 56.7977 6.28115C57.2263 5.3211 57.8092 4.45962 58.5464 3.69672C59.2921 2.93382 60.1065 2.36807 60.9894 1.99948C62.1637 1.50231 63.5181 1.25372 65.0525 1.25372C67.8298 1.25372 70.0499 2.1152 71.7128 3.83816C73.3844 5.56111 74.2201 7.95696 74.2201 11.0257C74.2201 14.0687 73.3929 16.4517 71.7386 18.1747C70.0842 19.8891 67.8726 20.7463 65.1039 20.7463C62.3009 20.7463 60.0722 19.8933 58.4178 18.1875C56.7634 16.4732 55.9362 14.1159 55.9362 11.1157ZM59.8579 10.9871C59.8579 13.1215 60.3508 14.7416 61.3365 15.8474C62.3223 16.9446 63.5738 17.4932 65.091 17.4932C66.6083 17.4932 67.8512 16.9489 68.8198 15.8603C69.797 14.7631 70.2856 13.1215 70.2856 10.9357C70.2856 8.77558 69.8099 7.16406 68.8584 6.10114C67.9155 5.03822 66.6597 4.50676 65.091 4.50676C63.5224 4.50676 62.258 5.0468 61.298 6.12686C60.3379 7.19835 59.8579 8.81844 59.8579 10.9871Z" stroke="white" stroke-width="1.08292" stroke-linejoin="round"/>
<path d="M83.5261 20.7463V12.5424L76.386 1.25372H80.9998L85.5871 8.96564L90.0813 1.25372H94.6153L87.4486 12.569V20.7463H83.5261Z" stroke="white" stroke-width="1.08292" stroke-linejoin="round"/>
<path d="M112.549 14.6417C113.329 15.4505 113.925 16.4025 114.338 17.4975H110.029C109.906 17.3147 109.773 17.1428 109.63 16.9818C108.644 15.8846 107.393 15.336 105.875 15.336C104.358 15.336 103.115 15.8803 102.146 16.9689C101.348 17.865 100.876 19.1241 100.73 20.7463H96.7812C96.9545 18.2033 97.77 16.1727 99.2278 14.6545C100.882 12.9401 103.094 12.0829 105.862 12.0829C108.665 12.0829 110.894 12.9358 112.549 14.6417Z" fill="url(#paint0_linear_3334_22261)"/>
<path d="M97.4435 4.50251C97.8558 5.59758 98.4522 6.54953 99.2327 7.35839C100.887 9.0642 103.116 9.9171 105.919 9.9171C108.688 9.9171 110.899 9.05991 112.553 7.34553C114.011 5.82738 114.827 3.79679 115 1.25375H111.051C110.905 2.87592 110.433 4.13504 109.635 5.03111C108.666 6.11974 107.423 6.66406 105.906 6.66406C104.389 6.66406 103.137 6.11546 102.151 5.01825C102.008 4.85724 101.875 4.68533 101.752 4.50251H97.4435Z" fill="url(#paint1_linear_3334_22261)"/>
<path d="M112.549 14.6417C113.329 15.4505 113.925 16.4025 114.338 17.4975H110.029C109.906 17.3147 109.773 17.1428 109.63 16.9818C108.644 15.8846 107.393 15.336 105.875 15.336C104.358 15.336 103.115 15.8803 102.146 16.9689C101.348 17.865 100.876 19.1241 100.73 20.7463H96.7812C96.9545 18.2033 97.77 16.1727 99.2278 14.6545C100.882 12.9401 103.094 12.0829 105.862 12.0829C108.665 12.0829 110.894 12.9358 112.549 14.6417Z" stroke="url(#paint2_linear_3334_22261)" stroke-width="1.08292" stroke-linejoin="round"/>
<path d="M97.4435 4.50251C97.8558 5.59758 98.4522 6.54953 99.2327 7.35839C100.887 9.0642 103.116 9.9171 105.919 9.9171C108.688 9.9171 110.899 9.05991 112.553 7.34553C114.011 5.82738 114.827 3.79679 115 1.25375H111.051C110.905 2.87592 110.433 4.13504 109.635 5.03111C108.666 6.11974 107.423 6.66406 105.906 6.66406C104.389 6.66406 103.137 6.11546 102.151 5.01825C102.008 4.85724 101.875 4.68533 101.752 4.50251H97.4435Z" stroke="url(#paint3_linear_3334_22261)" stroke-width="1.08292" stroke-linejoin="round"/>
<defs>
<linearGradient id="paint0_linear_3334_22261" x1="96.4846" y1="13.4141" x2="115.626" y2="13.4141" gradientUnits="userSpaceOnUse">
<stop stop-color="#68D4ED"/>
<stop offset="0.442708" stop-color="#95F270"/>
<stop offset="1" stop-color="#E5E564"/>
</linearGradient>
<linearGradient id="paint1_linear_3334_22261" x1="96.4846" y1="13.4141" x2="115.626" y2="13.4141" gradientUnits="userSpaceOnUse">
<stop stop-color="#68D4ED"/>
<stop offset="0.442708" stop-color="#95F270"/>
<stop offset="1" stop-color="#E5E564"/>
</linearGradient>
<linearGradient id="paint2_linear_3334_22261" x1="96.4846" y1="13.4141" x2="115.626" y2="13.4141" gradientUnits="userSpaceOnUse">
<stop stop-color="#68D4ED"/>
<stop offset="0.442708" stop-color="#95F270"/>
<stop offset="1" stop-color="#E5E564"/>
</linearGradient>
<linearGradient id="paint3_linear_3334_22261" x1="96.4846" y1="13.4141" x2="115.626" y2="13.4141" gradientUnits="userSpaceOnUse">
<stop stop-color="#68D4ED"/>
<stop offset="0.442708" stop-color="#95F270"/>
<stop offset="1" stop-color="#E5E564"/>
</linearGradient>
</defs>
</svg>
